<svg width="2107" height="1561" viewBox="0 0 2107 1561" fill="none" xmlns="http://www.w3.org/2000/svg">
<path d="M1.92627 563.132L52.6498 613.132L1.92627 650.132V772.632L67.0964 732.882M132.267 693.132V563.132L223.441 693.132L132.267 796.632L1.92627 807.132V994.632L91.8161 1014.63M132.267 693.132L67.0964 732.882M132.267 693.132V741.132V837.632L197.758 847.132L233.714 872.632L223.441 756.132L362.128 702.632L319.109 807.132L465.501 980.632L52.6498 972.632V872.632L283.153 892.132L197.758 1026.13L91.8161 1014.63M91.8161 1014.63L109.794 954.132L91.8161 847.132L75.1223 772.632L67.0964 732.882" stroke="#0B74AF" stroke-opacity="0.62"/>
<ellipse cx="52.6498" cy="612.132" rx="2.56828" ry="2" fill="#D9D9D9"/>
<ellipse cx="78.5683" cy="1450" rx="2.56828" ry="2" fill="#D9D9D9"/>
<ellipse cx="7.56828" cy="1309" rx="2.56828" ry="2" fill="#D9D9D9"/>
<ellipse cx="2.56828" cy="771.132" rx="2.56828" ry="2" fill="#D9D9D9"/>
<ellipse cx="2.56828" cy="807.132" rx="2.56828" ry="2" fill="#D9D9D9"/>
<ellipse cx="80.9008" cy="800.132" rx="2.56828" ry="2" fill="#D9D9D9"/>
<ellipse cx="133.551" cy="796.132" rx="2.56828" ry="2" fill="#D9D9D9"/>
<ellipse cx="133.551" cy="693.132" rx="2.56828" ry="2" fill="#D9D9D9"/>
<ellipse cx="133.551" cy="565.132" rx="2.56828" ry="2" fill="#D9D9D9"/>
<ellipse cx="223.44" cy="693.132" rx="2.56828" ry="2" fill="#D9D9D9"/>
<ellipse cx="233.714" cy="872.132" rx="2.56828" ry="2" fill="#D9D9D9"/>
<ellipse cx="199.042" cy="1026.13" rx="2.56828" ry="2" fill="#D9D9D9"/>
<ellipse cx="92.4582" cy="1013.13" rx="2.56828" ry="2" fill="#D9D9D9"/>
<ellipse cx="2.56828" cy="994.132" rx="2.56828" ry="2" fill="#D9D9D9"/>
<ellipse cx="53.934" cy="971.132" rx="2.56828" ry="2" fill="#D9D9D9"/>
<ellipse cx="109.152" cy="955.132" rx="2.56828" ry="2" fill="#D9D9D9"/>
<ellipse cx="282.511" cy="893.132" rx="2.56828" ry="2" fill="#D9D9D9"/>
<ellipse cx="319.751" cy="807.132" rx="2.56828" ry="2" fill="#D9D9D9"/>
<ellipse cx="362.128" cy="703.132" rx="2.56828" ry="2" fill="#D9D9D9"/>
<ellipse cx="223.44" cy="756.132" rx="2.56828" ry="2" fill="#D9D9D9"/>
<ellipse cx="464.859" cy="980.132" rx="2.56828" ry="2" fill="#D9D9D9"/>
<ellipse cx="53.934" cy="872.132" rx="2.56828" ry="2" fill="#D9D9D9"/>
<path d="M809.448 856.857L732.474 835.242L750.473 782.966L667.434 678.925L639.029 739.475M610.624 800.025L698.747 910.437L533.188 837.505L540.464 712.121L644.047 649.623L516.947 490.376L427.044 510.341M610.624 800.025L639.029 739.475M610.624 800.025L578.086 759.258L512.672 677.298L450.609 696.152L402.785 689.275L490.482 783.997L408.959 886.447L374.658 780.009L132.714 692.83L488.779 529.912L556.566 614.844L347.577 693.036L329.27 544.123L427.044 510.341M427.044 510.341L452.786 569.115L540.587 652.602L605.267 709.014L639.029 739.475" stroke="#0B74AF" stroke-opacity="0.52"/>
<ellipse cx="2.42336" cy="2.17334" rx="2.42336" ry="2.17334" transform="matrix(-0.900112 0.435659 -0.623805 -0.78158 736.689 836.734)" fill="#D9D9D9"/>
<ellipse cx="2.42336" cy="2.17334" rx="2.42336" ry="2.17334" transform="matrix(-0.900112 0.435659 -0.623805 -0.78158 671.442 681.105)" fill="#D9D9D9"/>
<ellipse cx="2.42336" cy="2.17334" rx="2.42336" ry="2.17334" transform="matrix(-0.900112 0.435659 -0.623805 -0.78158 647.039 650.53)" fill="#D9D9D9"/>
<ellipse cx="2.42336" cy="2.17334" rx="2.42336" ry="2.17334" transform="matrix(-0.900112 0.435659 -0.623805 -0.78158 585.255 688.676)" fill="#D9D9D9"/>
<ellipse cx="2.42336" cy="2.17334" rx="2.42336" ry="2.17334" transform="matrix(-0.900112 0.435659 -0.623805 -0.78158 543.25 713.716)" fill="#D9D9D9"/>
<ellipse cx="2.42336" cy="2.17334" rx="2.42336" ry="2.17334" transform="matrix(-0.900112 0.435659 -0.623805 -0.78158 613.07 801.196)" fill="#D9D9D9"/>
<ellipse cx="2.42336" cy="2.17334" rx="2.42336" ry="2.17334" transform="matrix(-0.900112 0.435659 -0.623805 -0.78158 699.838 909.909)" fill="#D9D9D9"/>
<ellipse cx="2.42336" cy="2.17334" rx="2.42336" ry="2.17334" transform="matrix(-0.900112 0.435659 -0.623805 -0.78158 536.725 838.147)" fill="#D9D9D9"/>
<ellipse cx="2.42336" cy="2.17334" rx="2.42336" ry="2.17334" transform="matrix(-0.900112 0.435659 -0.623805 -0.78158 406.661 690.342)" fill="#D9D9D9"/>
<ellipse cx="2.42336" cy="2.17334" rx="2.42336" ry="2.17334" transform="matrix(-0.900112 0.435659 -0.623805 -0.78158 331.717 545.294)" fill="#D9D9D9"/>
<ellipse cx="2.42336" cy="2.17334" rx="2.42336" ry="2.17334" transform="matrix(-0.900112 0.435659 -0.623805 -0.78158 431.052 512.521)" fill="#D9D9D9"/>
<ellipse cx="2.42336" cy="2.17334" rx="2.42336" ry="2.17334" transform="matrix(-0.900112 0.435659 -0.623805 -0.78158 520.277 491.707)" fill="#D9D9D9"/>
<ellipse cx="2.42336" cy="2.17334" rx="2.42336" ry="2.17334" transform="matrix(-0.900112 0.435659 -0.623805 -0.78158 492.242 532.357)" fill="#D9D9D9"/>
<ellipse cx="2.42336" cy="2.17334" rx="2.42336" ry="2.17334" transform="matrix(-0.900112 0.435659 -0.623805 -0.78158 456.191 568.645)" fill="#D9D9D9"/>
<ellipse cx="2.42336" cy="2.17334" rx="2.42336" ry="2.17334" transform="matrix(-0.900112 0.435659 -0.623805 -0.78158 350.981 692.566)" fill="#D9D9D9"/>
<ellipse cx="2.42336" cy="2.17334" rx="2.42336" ry="2.17334" transform="matrix(-0.900112 0.435659 -0.623805 -0.78158 377.649 780.916)" fill="#D9D9D9"/>
<ellipse cx="2.42336" cy="2.17334" rx="2.42336" ry="2.17334" transform="matrix(-0.900112 0.435659 -0.623805 -0.78158 412.157 886.665)" fill="#D9D9D9"/>
<ellipse cx="2.42336" cy="2.17334" rx="2.42336" ry="2.17334" transform="matrix(-0.900112 0.435659 -0.623805 -0.78158 494.019 784.64)" fill="#D9D9D9"/>
<ellipse cx="2.42336" cy="2.17334" rx="2.42336" ry="2.17334" transform="matrix(-0.900112 0.435659 -0.623805 -0.78158 137.135 693.634)" fill="#D9D9D9"/>
<ellipse cx="2.42336" cy="2.17334" rx="2.42336" ry="2.17334" transform="matrix(-0.900112 0.435659 -0.623805 -0.78158 559.352 616.439)" fill="#D9D9D9"/>
<path d="M186.843 806.132L237.566 856.132L186.843 893.132V1015.63L252.013 975.882M317.183 936.132V806.132L408.357 936.132L317.183 1039.63L186.843 1050.13V1237.63L276.732 1257.63M317.183 936.132L252.013 975.882M317.183 936.132V984.132V1080.63L382.674 1090.13L418.63 1115.63L408.357 999.132L547.044 945.632L504.025 1050.13L650.417 1223.63L237.566 1215.63V1115.63L468.069 1135.13L382.674 1269.13L276.732 1257.63M276.732 1257.63L294.71 1197.13L276.732 1090.13L260.039 1015.63L252.013 975.882" stroke="#0B74AF" stroke-opacity="0.62"/>
<ellipse cx="237.566" cy="855.132" rx="2.56828" ry="2" fill="#D9D9D9"/>
<ellipse cx="187.485" cy="1014.13" rx="2.56828" ry="2" fill="#D9D9D9"/>
<ellipse cx="187.485" cy="1050.13" rx="2.56828" ry="2" fill="#D9D9D9"/>
<ellipse cx="265.817" cy="1043.13" rx="2.56828" ry="2" fill="#D9D9D9"/>
<ellipse cx="318.467" cy="1039.13" rx="2.56828" ry="2" fill="#D9D9D9"/>
<ellipse cx="318.467" cy="936.132" rx="2.56828" ry="2" fill="#D9D9D9"/>
<ellipse cx="318.467" cy="808.132" rx="2.56828" ry="2" fill="#D9D9D9"/>
<ellipse cx="408.357" cy="936.132" rx="2.56828" ry="2" fill="#D9D9D9"/>
<ellipse cx="418.63" cy="1115.13" rx="2.56828" ry="2" fill="#D9D9D9"/>
<ellipse cx="383.958" cy="1269.13" rx="2.56828" ry="2" fill="#D9D9D9"/>
<ellipse cx="277.374" cy="1256.13" rx="2.56828" ry="2" fill="#D9D9D9"/>
<ellipse cx="187.485" cy="1237.13" rx="2.56828" ry="2" fill="#D9D9D9"/>
<ellipse cx="238.85" cy="1214.13" rx="2.56828" ry="2" fill="#D9D9D9"/>
<ellipse cx="294.068" cy="1198.13" rx="2.56828" ry="2" fill="#D9D9D9"/>
<ellipse cx="467.427" cy="1136.13" rx="2.56828" ry="2" fill="#D9D9D9"/>
<ellipse cx="504.667" cy="1050.13" rx="2.56828" ry="2" fill="#D9D9D9"/>
<ellipse cx="547.044" cy="946.132" rx="2.56828" ry="2" fill="#D9D9D9"/>
<ellipse cx="408.357" cy="999.132" rx="2.56828" ry="2" fill="#D9D9D9"/>
<ellipse cx="649.775" cy="1223.13" rx="2.56828" ry="2" fill="#D9D9D9"/>
<ellipse cx="238.85" cy="1115.13" rx="2.56828" ry="2" fill="#D9D9D9"/>
<path d="M994.364 1099.86L917.39 1078.24L935.389 1025.97L852.35 921.925L823.945 982.475M795.54 1043.03L883.663 1153.44L718.104 1080.5L725.381 955.121L828.964 892.623L701.863 733.376L611.96 753.341M795.54 1043.03L823.945 982.475M795.54 1043.03L763.003 1002.26L697.588 920.299L635.525 939.152L587.702 932.275L675.399 1027L593.875 1129.45L559.574 1023.01L317.63 935.83L673.696 772.912L741.483 857.844L532.493 936.036L514.187 787.124L611.96 753.341M611.96 753.341L637.702 812.115L725.504 895.602L790.183 952.014L823.945 982.475" stroke="#0B74AF" stroke-opacity="0.52"/>
<ellipse cx="2.42336" cy="2.17334" rx="2.42336" ry="2.17334" transform="matrix(-0.900112 0.435659 -0.623805 -0.78158 921.605 1079.73)" fill="#D9D9D9"/>
<ellipse cx="2.42336" cy="2.17334" rx="2.42336" ry="2.17334" transform="matrix(-0.900112 0.435659 -0.623805 -0.78158 856.359 924.105)" fill="#D9D9D9"/>
<ellipse cx="2.42336" cy="2.17334" rx="2.42336" ry="2.17334" transform="matrix(-0.900112 0.435659 -0.623805 -0.78158 831.955 893.53)" fill="#D9D9D9"/>
<ellipse cx="2.42336" cy="2.17334" rx="2.42336" ry="2.17334" transform="matrix(-0.900112 0.435659 -0.623805 -0.78158 770.171 931.676)" fill="#D9D9D9"/>
<ellipse cx="2.42336" cy="2.17334" rx="2.42336" ry="2.17334" transform="matrix(-0.900112 0.435659 -0.623805 -0.78158 728.166 956.716)" fill="#D9D9D9"/>
<ellipse cx="2.42336" cy="2.17334" rx="2.42336" ry="2.17334" transform="matrix(-0.900112 0.435659 -0.623805 -0.78158 797.987 1044.2)" fill="#D9D9D9"/>
<ellipse cx="2.42336" cy="2.17334" rx="2.42336" ry="2.17334" transform="matrix(-0.900112 0.435659 -0.623805 -0.78158 884.754 1152.91)" fill="#D9D9D9"/>
<ellipse cx="2.42336" cy="2.17334" rx="2.42336" ry="2.17334" transform="matrix(-0.900112 0.435659 -0.623805 -0.78158 721.641 1081.15)" fill="#D9D9D9"/>
<ellipse cx="2.42336" cy="2.17334" rx="2.42336" ry="2.17334" transform="matrix(-0.900112 0.435659 -0.623805 -0.78158 591.578 933.342)" fill="#D9D9D9"/>
<ellipse cx="2.42336" cy="2.17334" rx="2.42336" ry="2.17334" transform="matrix(-0.900112 0.435659 -0.623805 -0.78158 516.633 788.294)" fill="#D9D9D9"/>
<ellipse cx="2.42336" cy="2.17334" rx="2.42336" ry="2.17334" transform="matrix(-0.900112 0.435659 -0.623805 -0.78158 615.969 755.521)" fill="#D9D9D9"/>
<ellipse cx="2.42336" cy="2.17334" rx="2.42336" ry="2.17334" transform="matrix(-0.900112 0.435659 -0.623805 -0.78158 705.194 734.707)" fill="#D9D9D9"/>
<ellipse cx="2.42336" cy="2.17334" rx="2.42336" ry="2.17334" transform="matrix(-0.900112 0.435659 -0.623805 -0.78158 677.159 775.357)" fill="#D9D9D9"/>
<ellipse cx="2.42336" cy="2.17334" rx="2.42336" ry="2.17334" transform="matrix(-0.900112 0.435659 -0.623805 -0.78158 641.107 811.645)" fill="#D9D9D9"/>
<ellipse cx="2.42336" cy="2.17334" rx="2.42336" ry="2.17334" transform="matrix(-0.900112 0.435659 -0.623805 -0.78158 535.898 935.566)" fill="#D9D9D9"/>
<ellipse cx="2.42336" cy="2.17334" rx="2.42336" ry="2.17334" transform="matrix(-0.900112 0.435659 -0.623805 -0.78158 562.566 1023.92)" fill="#D9D9D9"/>
<ellipse cx="2.42336" cy="2.17334" rx="2.42336" ry="2.17334" transform="matrix(-0.900112 0.435659 -0.623805 -0.78158 597.073 1129.67)" fill="#D9D9D9"/>
<ellipse cx="2.42336" cy="2.17334" rx="2.42336" ry="2.17334" transform="matrix(-0.900112 0.435659 -0.623805 -0.78158 678.936 1027.64)" fill="#D9D9D9"/>
<ellipse cx="2.42336" cy="2.17334" rx="2.42336" ry="2.17334" transform="matrix(-0.900112 0.435659 -0.623805 -0.78158 322.051 936.634)" fill="#D9D9D9"/>
<ellipse cx="2.42336" cy="2.17334" rx="2.42336" ry="2.17334" transform="matrix(-0.900112 0.435659 -0.623805 -0.78158 744.268 859.439)" fill="#D9D9D9"/>
<path d="M1607.76 366.784L1586.52 426.86L1534.16 413.17L1430.52 478.483L1491.21 500.224M1551.9 521.966L1661.88 452.654L1589.75 582.032L1464.34 577.149L1401.34 496.877L1242.71 596.847L1263.11 666.731M1551.9 521.966L1491.21 500.224M1551.9 521.966L1511.29 547.558L1429.65 599.009L1448.8 647.22L1442.16 684.504L1536.45 615.622L1639.3 678.466L1533.03 705.841L1447.03 894.791L1282.38 618.534L1366.98 565.217L1446.19 727.473L1297.37 742.658L1263.11 666.731M1263.11 666.731L1321.76 646.318L1404.82 577.425L1460.91 526.705L1491.21 500.224" stroke="#0B74AF" stroke-opacity="0.62"/>
<circle cx="1587.37" cy="426.326" r="2" transform="rotate(57.7801 1587.37 426.326)" fill="#D9D9D9"/>
<circle cx="1432.06" cy="478.106" r="2" transform="rotate(57.7801 1432.06 478.106)" fill="#D9D9D9"/>
<circle cx="1401.6" cy="497.3" r="2" transform="rotate(57.7801 1401.6 497.3)" fill="#D9D9D9"/>
<circle cx="1440.05" cy="545.175" r="2" transform="rotate(57.7801 1440.05 545.175)" fill="#D9D9D9"/>
<circle cx="1465.29" cy="577.728" r="2" transform="rotate(57.7801 1465.29 577.728)" fill="#D9D9D9"/>
<circle cx="1552.43" cy="522.812" r="2" transform="rotate(57.7801 1552.43 522.812)" fill="#D9D9D9"/>
<circle cx="1660.72" cy="454.566" r="2" transform="rotate(57.7801 1660.72 454.566)" fill="#D9D9D9"/>
<circle cx="1589.75" cy="582.032" r="2" transform="rotate(57.7801 1589.75 582.032)" fill="#D9D9D9"/>
<circle cx="1442.58" cy="684.238" r="2" transform="rotate(57.7801 1442.58 684.238)" fill="#D9D9D9"/>
<circle cx="1297.9" cy="743.504" r="2" transform="rotate(57.7801 1297.9 743.504)" fill="#D9D9D9"/>
<circle cx="1264.65" cy="666.354" r="2" transform="rotate(57.7801 1264.65 666.354)" fill="#D9D9D9"/>
<circle cx="1243.4" cy="597.003" r="2" transform="rotate(57.7801 1243.4 597.003)" fill="#D9D9D9"/>
<circle cx="1284.18" cy="618.581" r="2" transform="rotate(57.7801 1284.18 618.581)" fill="#D9D9D9"/>
<circle cx="1320.65" cy="646.428" r="2" transform="rotate(57.7801 1320.65 646.428)" fill="#D9D9D9"/>
<circle cx="1445.08" cy="727.583" r="2" transform="rotate(57.7801 1445.08 727.583)" fill="#D9D9D9"/>
<circle cx="1533.3" cy="706.264" r="2" transform="rotate(57.7801 1533.3 706.264)" fill="#D9D9D9"/>
<circle cx="1638.88" cy="678.733" r="2" transform="rotate(57.7801 1638.88 678.733)" fill="#D9D9D9"/>
<circle cx="1536.45" cy="615.622" r="2" transform="rotate(57.7801 1536.45 615.622)" fill="#D9D9D9"/>
<circle cx="1447.19" cy="894.102" r="2" transform="rotate(57.7801 1447.19 894.102)" fill="#D9D9D9"/>
<circle cx="1367.94" cy="565.797" r="2" transform="rotate(57.7801 1367.94 565.797)" fill="#D9D9D9"/>
<path d="M1694.55 1055.39L1680.88 993.159L1732.57 977.145L1786.12 866.966L1723.1 880.536M1660.08 894.106L1603.26 1011.03L1596.22 863.073L1705.32 801.016L1801.2 835.936L1883.15 667.295L1828.93 618.71M1660.08 894.106L1723.1 880.536M1660.08 894.106L1681.06 850.934L1723.24 764.14L1681.52 733.304L1667.48 698.131L1623.76 806.41L1503.23 807.324L1579.04 727.977L1552.34 522.1L1838.01 669.817L1794.3 759.759L1641.38 663.764L1759.76 572.308L1828.93 618.71M1828.93 618.71L1789.9 667.006L1755.72 769.363L1734.85 842.052L1723.1 880.536" stroke="#0B74AF" stroke-opacity="0.52"/>
<circle cx="1680.44" cy="994.059" r="2" transform="rotate(-154.082 1680.44 994.059)" fill="#D9D9D9"/>
<circle cx="1785.01" cy="868.097" r="2" transform="rotate(-154.082 1785.01 868.097)" fill="#D9D9D9"/>
<circle cx="1800.75" cy="835.717" r="2" transform="rotate(-154.082 1800.75 835.717)" fill="#D9D9D9"/>
<circle cx="1742.82" cy="815.351" r="2" transform="rotate(-154.082 1742.82 815.351)" fill="#D9D9D9"/>
<circle cx="1704.2" cy="801.029" r="2" transform="rotate(-154.082 1704.2 801.029)" fill="#D9D9D9"/>
<circle cx="1659.18" cy="893.669" r="2" transform="rotate(-154.082 1659.18 893.669)" fill="#D9D9D9"/>
<circle cx="1603.23" cy="1008.8" r="2" transform="rotate(-154.082 1603.23 1008.8)" fill="#D9D9D9"/>
<circle cx="1596.22" cy="863.073" r="2" transform="rotate(-154.082 1596.22 863.073)" fill="#D9D9D9"/>
<circle cx="1667.26" cy="698.58" r="2" transform="rotate(-154.082 1667.26 698.58)" fill="#D9D9D9"/>
<circle cx="1758.86" cy="571.871" r="2" transform="rotate(-154.082 1758.86 571.871)" fill="#D9D9D9"/>
<circle cx="1827.83" cy="619.841" r="2" transform="rotate(-154.082 1827.83 619.841)" fill="#D9D9D9"/>
<circle cx="1882.48" cy="667.526" r="2" transform="rotate(-154.082 1882.48 667.526)" fill="#D9D9D9"/>
<circle cx="1836.45" cy="670.729" r="2" transform="rotate(-154.082 1836.45 670.729)" fill="#D9D9D9"/>
<circle cx="1790.78" cy="666.325" r="2" transform="rotate(-154.082 1790.78 666.325)" fill="#D9D9D9"/>
<circle cx="1642.26" cy="663.083" r="2" transform="rotate(-154.082 1642.26 663.083)" fill="#D9D9D9"/>
<circle cx="1578.59" cy="727.758" r="2" transform="rotate(-154.082 1578.59 727.758)" fill="#D9D9D9"/>
<circle cx="1503.45" cy="806.874" r="2" transform="rotate(-154.082 1503.45 806.874)" fill="#D9D9D9"/>
<circle cx="1623.76" cy="806.41" r="2" transform="rotate(-154.082 1623.76 806.41)" fill="#D9D9D9"/>
<circle cx="1552.57" cy="522.768" r="2" transform="rotate(-154.082 1552.57 522.768)" fill="#D9D9D9"/>
<circle cx="1793.18" cy="759.772" r="2" transform="rotate(-154.082 1793.18 759.772)" fill="#D9D9D9"/>
<path d="M967.183 335.784L945.943 395.86L893.58 382.17L789.944 447.483L850.631 469.224M911.319 490.966L1021.3 421.654L949.174 551.032L823.757 546.149L760.757 465.877L602.13 565.847L622.532 635.731M911.319 490.966L850.631 469.224M911.319 490.966L870.71 516.558L789.07 568.009L808.225 616.22L801.581 653.505L895.875 584.622L998.719 647.466L892.45 674.841L806.449 863.791L641.803 587.534L726.404 534.217L805.61 696.473L656.79 711.658L622.532 635.731M622.532 635.731L681.18 615.318L764.238 546.425L820.335 495.706L850.631 469.224" stroke="#0B74AF" stroke-opacity="0.62"/>
<circle cx="946.789" cy="395.327" r="2" transform="rotate(57.7801 946.789 395.327)" fill="#D9D9D9"/>
<circle cx="791.48" cy="447.106" r="2" transform="rotate(57.7801 791.48 447.106)" fill="#D9D9D9"/>
<circle cx="761.023" cy="466.3" r="2" transform="rotate(57.7801 761.023 466.3)" fill="#D9D9D9"/>
<circle cx="799.469" cy="514.175" r="2" transform="rotate(57.7801 799.469 514.175)" fill="#D9D9D9"/>
<circle cx="824.713" cy="546.728" r="2" transform="rotate(57.7801 824.713 546.728)" fill="#D9D9D9"/>
<circle cx="911.852" cy="491.812" r="2" transform="rotate(57.7801 911.852 491.812)" fill="#D9D9D9"/>
<circle cx="1020.14" cy="423.566" r="2" transform="rotate(57.7801 1020.14 423.566)" fill="#D9D9D9"/>
<circle cx="949.174" cy="551.032" r="2" transform="rotate(57.7801 949.174 551.032)" fill="#D9D9D9"/>
<circle cx="802.003" cy="653.238" r="2" transform="rotate(57.7801 802.003 653.238)" fill="#D9D9D9"/>
<circle cx="657.323" cy="712.504" r="2" transform="rotate(57.7801 657.323 712.504)" fill="#D9D9D9"/>
<circle cx="624.068" cy="635.354" r="2" transform="rotate(57.7801 624.068 635.354)" fill="#D9D9D9"/>
<circle cx="602.82" cy="566.003" r="2" transform="rotate(57.7801 602.82 566.003)" fill="#D9D9D9"/>
<circle cx="643.605" cy="587.581" r="2" transform="rotate(57.7801 643.605 587.581)" fill="#D9D9D9"/>
<circle cx="680.067" cy="615.428" r="2" transform="rotate(57.7801 680.067 615.428)" fill="#D9D9D9"/>
<circle cx="804.498" cy="696.583" r="2" transform="rotate(57.7801 804.498 696.583)" fill="#D9D9D9"/>
<circle cx="892.716" cy="675.264" r="2" transform="rotate(57.7801 892.716 675.264)" fill="#D9D9D9"/>
<circle cx="998.296" cy="647.733" r="2" transform="rotate(57.7801 998.296 647.733)" fill="#D9D9D9"/>
<circle cx="895.875" cy="584.622" r="2" transform="rotate(57.7801 895.875 584.622)" fill="#D9D9D9"/>
<circle cx="806.605" cy="863.102" r="2" transform="rotate(57.7801 806.605 863.102)" fill="#D9D9D9"/>
<circle cx="727.36" cy="534.797" r="2" transform="rotate(57.7801 727.36 534.797)" fill="#D9D9D9"/>
<path d="M1053.97 1024.4L1040.3 962.159L1091.99 946.145L1145.54 835.966L1082.52 849.536M1019.5 863.106L962.677 980.031L955.639 832.074L1064.74 770.016L1160.62 804.936L1242.57 636.295L1188.35 587.71M1019.5 863.106L1082.52 849.536M1019.5 863.106L1040.48 819.934L1082.66 733.14L1040.94 702.304L1026.9 667.131L983.175 775.41L862.654 776.324L938.459 696.977L911.759 491.1L1197.43 638.817L1153.72 728.759L1000.8 632.764L1119.18 541.308L1188.35 587.71M1188.35 587.71L1149.32 636.006L1115.14 738.364L1094.27 811.053L1082.52 849.536" stroke="#0B74AF" stroke-opacity="0.52"/>
<circle cx="1039.86" cy="963.059" r="2" transform="rotate(-154.082 1039.86 963.059)" fill="#D9D9D9"/>
<circle cx="1144.43" cy="837.097" r="2" transform="rotate(-154.082 1144.43 837.097)" fill="#D9D9D9"/>
<circle cx="1160.17" cy="804.718" r="2" transform="rotate(-154.082 1160.17 804.718)" fill="#D9D9D9"/>
<circle cx="1102.24" cy="784.352" r="2" transform="rotate(-154.082 1102.24 784.352)" fill="#D9D9D9"/>
<circle cx="1063.62" cy="770.029" r="2" transform="rotate(-154.082 1063.62 770.029)" fill="#D9D9D9"/>
<circle cx="1018.6" cy="862.669" r="2" transform="rotate(-154.082 1018.6 862.669)" fill="#D9D9D9"/>
<circle cx="962.652" cy="977.795" r="2" transform="rotate(-154.082 962.652 977.795)" fill="#D9D9D9"/>
<circle cx="955.639" cy="832.074" r="2" transform="rotate(-154.082 955.639 832.074)" fill="#D9D9D9"/>
<circle cx="1026.68" cy="667.58" r="2" transform="rotate(-154.082 1026.68 667.58)" fill="#D9D9D9"/>
<circle cx="1118.28" cy="540.871" r="2" transform="rotate(-154.082 1118.28 540.871)" fill="#D9D9D9"/>
<circle cx="1187.25" cy="588.841" r="2" transform="rotate(-154.082 1187.25 588.841)" fill="#D9D9D9"/>
<circle cx="1241.9" cy="636.526" r="2" transform="rotate(-154.082 1241.9 636.526)" fill="#D9D9D9"/>
<circle cx="1195.87" cy="639.729" r="2" transform="rotate(-154.082 1195.87 639.729)" fill="#D9D9D9"/>
<circle cx="1150.2" cy="635.325" r="2" transform="rotate(-154.082 1150.2 635.325)" fill="#D9D9D9"/>
<circle cx="1001.68" cy="632.083" r="2" transform="rotate(-154.082 1001.68 632.083)" fill="#D9D9D9"/>
<circle cx="938.01" cy="696.758" r="2" transform="rotate(-154.082 938.01 696.758)" fill="#D9D9D9"/>
<circle cx="862.872" cy="775.874" r="2" transform="rotate(-154.082 862.872 775.874)" fill="#D9D9D9"/>
<circle cx="983.175" cy="775.41" r="2" transform="rotate(-154.082 983.175 775.41)" fill="#D9D9D9"/>
<circle cx="911.99" cy="491.768" r="2" transform="rotate(-154.082 911.99 491.768)" fill="#D9D9D9"/>
<circle cx="1152.6" cy="728.772" r="2" transform="rotate(-154.082 1152.6 728.772)" fill="#D9D9D9"/>
<path d="M1478.96 618.169L1457.72 678.245L1405.36 664.555L1301.72 729.869L1362.41 751.61M1423.09 773.351L1533.08 704.039L1460.95 833.418L1335.53 828.534L1272.53 748.263L1113.91 848.232L1134.31 918.116M1423.09 773.351L1362.41 751.61M1423.09 773.351L1382.49 798.944L1300.85 850.394L1320 898.606L1313.36 935.89L1407.65 867.008L1510.5 929.852L1404.23 957.227L1318.23 1146.18L1153.58 869.92L1238.18 816.603L1317.39 978.858L1168.57 994.043L1134.31 918.116M1134.31 918.116L1192.96 897.704L1276.01 828.81L1332.11 778.091L1362.41 751.61" stroke="#0B74AF" stroke-opacity="0.62"/>
<circle cx="1458.56" cy="677.712" r="2" transform="rotate(57.7801 1458.56 677.712)" fill="#D9D9D9"/>
<circle cx="1303.26" cy="729.492" r="2" transform="rotate(57.7801 1303.26 729.492)" fill="#D9D9D9"/>
<circle cx="1272.8" cy="748.686" r="2" transform="rotate(57.7801 1272.8 748.686)" fill="#D9D9D9"/>
<circle cx="1311.25" cy="796.56" r="2" transform="rotate(57.7801 1311.25 796.56)" fill="#D9D9D9"/>
<circle cx="1336.49" cy="829.114" r="2" transform="rotate(57.7801 1336.49 829.114)" fill="#D9D9D9"/>
<circle cx="1423.63" cy="774.197" r="2" transform="rotate(57.7801 1423.63 774.197)" fill="#D9D9D9"/>
<circle cx="1531.92" cy="705.952" r="2" transform="rotate(57.7801 1531.92 705.952)" fill="#D9D9D9"/>
<circle cx="1460.95" cy="833.418" r="2" transform="rotate(57.7801 1460.95 833.418)" fill="#D9D9D9"/>
<circle cx="1313.78" cy="935.623" r="2" transform="rotate(57.7801 1313.78 935.623)" fill="#D9D9D9"/>
<circle cx="1169.1" cy="994.889" r="2" transform="rotate(57.7801 1169.1 994.889)" fill="#D9D9D9"/>
<circle cx="1135.84" cy="917.74" r="2" transform="rotate(57.7801 1135.84 917.74)" fill="#D9D9D9"/>
<circle cx="1114.6" cy="848.389" r="2" transform="rotate(57.7801 1114.6 848.389)" fill="#D9D9D9"/>
<circle cx="1155.38" cy="869.966" r="2" transform="rotate(57.7801 1155.38 869.966)" fill="#D9D9D9"/>
<circle cx="1191.84" cy="897.814" r="2" transform="rotate(57.7801 1191.84 897.814)" fill="#D9D9D9"/>
<circle cx="1316.27" cy="978.968" r="2" transform="rotate(57.7801 1316.27 978.968)" fill="#D9D9D9"/>
<circle cx="1404.49" cy="957.65" r="2" transform="rotate(57.7801 1404.49 957.65)" fill="#D9D9D9"/>
<circle cx="1510.07" cy="930.118" r="2" transform="rotate(57.7801 1510.07 930.118)" fill="#D9D9D9"/>
<circle cx="1407.65" cy="867.008" r="2" transform="rotate(57.7801 1407.65 867.008)" fill="#D9D9D9"/>
<circle cx="1318.38" cy="1145.49" r="2" transform="rotate(57.7801 1318.38 1145.49)" fill="#D9D9D9"/>
<circle cx="1239.14" cy="817.182" r="2" transform="rotate(57.7801 1239.14 817.182)" fill="#D9D9D9"/>
<path d="M1565.74 1306.78L1552.07 1244.54L1603.77 1228.53L1657.31 1118.35L1594.29 1131.92M1531.27 1145.49L1474.45 1262.42L1467.42 1114.46L1576.51 1052.4L1672.39 1087.32L1754.35 918.68L1700.13 870.096M1531.27 1145.49L1594.29 1131.92M1531.27 1145.49L1552.25 1102.32L1594.43 1015.53L1552.71 984.69L1538.68 949.516L1494.95 1057.8L1374.43 1058.71L1450.24 979.362L1423.54 773.485L1709.2 921.203L1665.49 1011.14L1512.57 915.15L1630.95 823.693L1700.13 870.096M1700.13 870.096L1661.09 918.392L1626.92 1020.75L1606.05 1093.44L1594.29 1131.92" stroke="#0B74AF" stroke-opacity="0.52"/>
<circle cx="1551.63" cy="1245.44" r="2" transform="rotate(-154.082 1551.63 1245.44)" fill="#D9D9D9"/>
<circle cx="1656.21" cy="1119.48" r="2" transform="rotate(-154.082 1656.21 1119.48)" fill="#D9D9D9"/>
<circle cx="1671.94" cy="1087.1" r="2" transform="rotate(-154.082 1671.94 1087.1)" fill="#D9D9D9"/>
<circle cx="1614.02" cy="1066.74" r="2" transform="rotate(-154.082 1614.02 1066.74)" fill="#D9D9D9"/>
<circle cx="1575.39" cy="1052.41" r="2" transform="rotate(-154.082 1575.39 1052.41)" fill="#D9D9D9"/>
<circle cx="1530.37" cy="1145.05" r="2" transform="rotate(-154.082 1530.37 1145.05)" fill="#D9D9D9"/>
<circle cx="1474.43" cy="1260.18" r="2" transform="rotate(-154.082 1474.43 1260.18)" fill="#D9D9D9"/>
<circle cx="1467.42" cy="1114.46" r="2" transform="rotate(-154.082 1467.42 1114.46)" fill="#D9D9D9"/>
<circle cx="1538.46" cy="949.966" r="2" transform="rotate(-154.082 1538.46 949.966)" fill="#D9D9D9"/>
<circle cx="1630.05" cy="823.256" r="2" transform="rotate(-154.082 1630.05 823.256)" fill="#D9D9D9"/>
<circle cx="1699.02" cy="871.227" r="2" transform="rotate(-154.082 1699.02 871.227)" fill="#D9D9D9"/>
<circle cx="1753.68" cy="918.911" r="2" transform="rotate(-154.082 1753.68 918.911)" fill="#D9D9D9"/>
<circle cx="1707.65" cy="922.115" r="2" transform="rotate(-154.082 1707.65 922.115)" fill="#D9D9D9"/>
<circle cx="1661.98" cy="917.711" r="2" transform="rotate(-154.082 1661.98 917.711)" fill="#D9D9D9"/>
<circle cx="1513.46" cy="914.469" r="2" transform="rotate(-154.082 1513.46 914.469)" fill="#D9D9D9"/>
<circle cx="1449.79" cy="979.144" r="2" transform="rotate(-154.082 1449.79 979.144)" fill="#D9D9D9"/>
<circle cx="1374.65" cy="1058.26" r="2" transform="rotate(-154.082 1374.65 1058.26)" fill="#D9D9D9"/>
<circle cx="1494.95" cy="1057.8" r="2" transform="rotate(-154.082 1494.95 1057.8)" fill="#D9D9D9"/>
<circle cx="1423.77" cy="774.154" r="2" transform="rotate(-154.082 1423.77 774.154)" fill="#D9D9D9"/>
<circle cx="1664.38" cy="1011.16" r="2" transform="rotate(-154.082 1664.38 1011.16)" fill="#D9D9D9"/>
</svg>
